<svg width="16" height="16" viewBox="0 0 12 12" fill="none" xmlns="http://www.w3.org/2000/svg">
<path d="M10 0H2C0.9 0 0 0.896266 0 1.9917V7.96681C0 9.06224 0.9 9.95851 2 9.95851H3.7L5.6 11.8506C5.8 12.0498 6.2 12.0498 6.5 11.8506L8.3 9.95851H10C11.1 9.95851 12 9.06224 12 7.96681V1.9917C12 0.896266 11.1 0 10 0Z" fill="#FFC700"/>
<path d="M3.09995 6.09999C3.59701 6.09999 3.99995 5.69704 3.99995 5.19999C3.99995 4.70293 3.59701 4.29999 3.09995 4.29999C2.60289 4.29999 2.19995 4.70293 2.19995 5.19999C2.19995 5.69704 2.60289 6.09999 3.09995 6.09999Z" fill="#F5F5F5"/>
<path d="M5.99985 6.09999C6.49691 6.09999 6.89985 5.69704 6.89985 5.19999C6.89985 4.70293 6.49691 4.29999 5.99985 4.29999C5.5028 4.29999 5.09985 4.70293 5.09985 5.19999C5.09985 5.69704 5.5028 6.09999 5.99985 6.09999Z" fill="#F5F5F5"/>
<path d="M8.9 6.09999C9.39706 6.09999 9.8 5.69704 9.8 5.19999C9.8 4.70293 9.39706 4.29999 8.9 4.29999C8.40294 4.29999 8 4.70293 8 5.19999C8 5.69704 8.40294 6.09999 8.9 6.09999Z" fill="#F5F5F5"/>
</svg>
