<svg width="16" height="16" viewBox="0 0 12 12" fill="none" xmlns="http://www.w3.org/2000/svg">
<path d="M4.24149 0.471549L3.9375 1.6875H1.71058C1.54332 1.6875 1.38086 1.74341 1.24902 1.84635C1.11719 1.94928 1.02354 2.09333 0.982976 2.2556L0.75 3.1875H1.6875L2.4375 11.8125H9.5625L10.3125 3.1875H11.25L11.017 2.2556C10.9765 2.09333 10.8828 1.94928 10.751 1.84635C10.6191 1.74341 10.4567 1.6875 10.2894 1.6875H8.0625L7.75851 0.471549C7.73823 0.390416 7.69141 0.318391 7.62549 0.266923C7.55957 0.215456 7.47834 0.1875 7.39471 0.1875H4.60529C4.52166 0.1875 4.44043 0.215456 4.37451 0.266923C4.30859 0.318391 4.26177 0.390416 4.24149 0.471549Z" fill="url(#paint0_linear_67_1855)"/>
<path d="M6 10.3125C5.90055 10.3125 5.80517 10.273 5.73484 10.2027C5.66452 10.1323 5.625 10.037 5.625 9.9375V5.0625C5.625 4.96304 5.66451 4.86766 5.73484 4.79734C5.80516 4.72701 5.90054 4.6875 6 4.6875C6.09946 4.6875 6.19484 4.72701 6.26517 4.79734C6.33549 4.86766 6.375 4.96304 6.375 5.0625V9.9375C6.375 10.037 6.33548 10.1323 6.26516 10.2027C6.19483 10.273 6.09945 10.3125 6 10.3125Z" fill="white"/>
<path d="M3.93705 10.3125C3.84264 10.3124 3.75174 10.2767 3.6825 10.2125C3.61326 10.1483 3.57078 10.0604 3.56352 9.96625L3.18855 5.09128C3.18445 5.042 3.19013 4.99241 3.20527 4.94534C3.22042 4.89827 3.24472 4.85466 3.27678 4.81702C3.30884 4.77938 3.34803 4.74845 3.39209 4.72601C3.43615 4.70358 3.48421 4.69007 3.53351 4.68628C3.58281 4.68249 3.63237 4.68849 3.67934 4.70393C3.72631 4.71937 3.76977 4.74394 3.80721 4.77624C3.84464 4.80853 3.87533 4.84791 3.89749 4.89211C3.91965 4.93632 3.93284 4.98446 3.93633 5.03378L4.3113 9.90876C4.31892 10.0079 4.28684 10.1061 4.22212 10.1816C4.15739 10.2571 4.06532 10.3038 3.96616 10.3114C3.95637 10.3121 3.94666 10.3125 3.93705 10.3125Z" fill="white"/>
<path d="M8.06285 10.3125C8.15727 10.3124 8.24816 10.2767 8.3174 10.2125C8.38664 10.1483 8.42913 10.0604 8.43638 9.96625L8.81135 5.09128C8.81545 5.042 8.80977 4.99241 8.79463 4.94534C8.77949 4.89827 8.75519 4.85466 8.72312 4.81702C8.69106 4.77938 8.65188 4.74845 8.60781 4.72601C8.56375 4.70358 8.51569 4.69007 8.46639 4.68628C8.4171 4.68249 8.36753 4.68849 8.32056 4.70393C8.27359 4.71937 8.23013 4.74394 8.1927 4.77624C8.15526 4.80853 8.12458 4.84791 8.10242 4.89211C8.08026 4.93632 8.06706 4.98446 8.06358 5.03378L7.6886 9.90876C7.68098 10.0079 7.71306 10.1061 7.77779 10.1816C7.84251 10.2571 7.93458 10.3038 8.03375 10.3114C8.04354 10.3121 8.05324 10.3125 8.06285 10.3125Z" fill="white"/>
<defs>
<linearGradient id="paint0_linear_67_1855" x1="6" y1="0.1875" x2="6" y2="11.8125" gradientUnits="userSpaceOnUse">
<stop stop-color="#FF717B"/>
<stop offset="0.302083" stop-color="#FF2837"/>
<stop offset="1" stop-color="#720008"/>
</linearGradient>
</defs>
</svg>
